<mxfile host="app.diagrams.net" modified="2023-09-06T22:35:13.536Z" agent="Mozilla/5.0 (Windows NT 10.0; Win64; x64; rv:109.0) Gecko/20100101 Firefox/117.0" etag="pO91YMXkULGcZXwkS9N9" version="21.3.6" type="device">
  <diagram name="Page-1" id="Bi6nuSbLF3TYPAGxzcB3">
    <mxGraphModel dx="896" dy="530" grid="1" gridSize="10" guides="1" tooltips="1" connect="1" arrows="1" fold="1" page="1" pageScale="1" pageWidth="850" pageHeight="1100" background="none" math="0" shadow="0">
      <root>
        <mxCell id="0" />
        <mxCell id="1" parent="0" />
        <mxCell id="uOwag5xyu-ka6NZC6iEb-7" value="" style="edgeStyle=orthogonalEdgeStyle;rounded=0;orthogonalLoop=1;jettySize=auto;html=1;" parent="1" source="uOwag5xyu-ka6NZC6iEb-2" edge="1">
          <mxGeometry relative="1" as="geometry">
            <mxPoint x="430" y="820" as="targetPoint" />
          </mxGeometry>
        </mxCell>
        <mxCell id="uOwag5xyu-ka6NZC6iEb-8" style="edgeStyle=orthogonalEdgeStyle;rounded=0;orthogonalLoop=1;jettySize=auto;html=1;exitX=0;exitY=0.5;exitDx=0;exitDy=0;" parent="1" target="uOwag5xyu-ka6NZC6iEb-3" edge="1">
          <mxGeometry relative="1" as="geometry">
            <mxPoint x="370" y="850" as="sourcePoint" />
          </mxGeometry>
        </mxCell>
        <mxCell id="lNCz8OnNDWfd_Ppy1dn2-34" value="" style="edgeStyle=orthogonalEdgeStyle;rounded=0;orthogonalLoop=1;jettySize=auto;html=1;fontSize=16;" edge="1" parent="1" source="lNCz8OnNDWfd_Ppy1dn2-1" target="lNCz8OnNDWfd_Ppy1dn2-8">
          <mxGeometry relative="1" as="geometry" />
        </mxCell>
        <mxCell id="lNCz8OnNDWfd_Ppy1dn2-1" value="Unit-cell volume relax" style="rounded=1;whiteSpace=wrap;html=1;spacingRight=4;fontSize=16;spacingLeft=4;" vertex="1" parent="1">
          <mxGeometry x="365" y="10" width="120" height="60" as="geometry" />
        </mxCell>
        <mxCell id="lNCz8OnNDWfd_Ppy1dn2-55" style="edgeStyle=orthogonalEdgeStyle;rounded=0;orthogonalLoop=1;jettySize=auto;html=1;exitX=0;exitY=0.5;exitDx=0;exitDy=0;entryX=0.5;entryY=0;entryDx=0;entryDy=0;fontSize=16;" edge="1" parent="1" source="lNCz8OnNDWfd_Ppy1dn2-2" target="lNCz8OnNDWfd_Ppy1dn2-26">
          <mxGeometry relative="1" as="geometry">
            <Array as="points">
              <mxPoint x="280" y="480" />
              <mxPoint x="280" y="560" />
              <mxPoint x="190" y="560" />
            </Array>
          </mxGeometry>
        </mxCell>
        <mxCell id="lNCz8OnNDWfd_Ppy1dn2-65" value="" style="edgeStyle=orthogonalEdgeStyle;rounded=0;orthogonalLoop=1;jettySize=auto;html=1;" edge="1" parent="1" source="lNCz8OnNDWfd_Ppy1dn2-2" target="lNCz8OnNDWfd_Ppy1dn2-23">
          <mxGeometry relative="1" as="geometry" />
        </mxCell>
        <mxCell id="lNCz8OnNDWfd_Ppy1dn2-2" value="Final charge state at initial positions SCF and Export" style="rounded=1;whiteSpace=wrap;html=1;fontSize=16;" vertex="1" parent="1">
          <mxGeometry x="330" y="430" width="120" height="100" as="geometry" />
        </mxCell>
        <mxCell id="lNCz8OnNDWfd_Ppy1dn2-47" style="edgeStyle=orthogonalEdgeStyle;rounded=0;orthogonalLoop=1;jettySize=auto;html=1;exitX=0.75;exitY=1;exitDx=0;exitDy=0;entryX=0.25;entryY=0;entryDx=0;entryDy=0;fontSize=16;" edge="1" parent="1" source="lNCz8OnNDWfd_Ppy1dn2-3" target="lNCz8OnNDWfd_Ppy1dn2-18">
          <mxGeometry relative="1" as="geometry" />
        </mxCell>
        <mxCell id="lNCz8OnNDWfd_Ppy1dn2-52" style="edgeStyle=orthogonalEdgeStyle;rounded=0;orthogonalLoop=1;jettySize=auto;html=1;exitX=0;exitY=0.75;exitDx=0;exitDy=0;entryX=1;entryY=0.75;entryDx=0;entryDy=0;fontSize=16;" edge="1" parent="1" source="lNCz8OnNDWfd_Ppy1dn2-3" target="lNCz8OnNDWfd_Ppy1dn2-23">
          <mxGeometry relative="1" as="geometry" />
        </mxCell>
        <mxCell id="lNCz8OnNDWfd_Ppy1dn2-3" value="Excited-state relax and Export (energies only)" style="rounded=1;whiteSpace=wrap;html=1;fontSize=16;spacingRight=4;spacingLeft=4;" vertex="1" parent="1">
          <mxGeometry x="560" y="465" width="120" height="95" as="geometry" />
        </mxCell>
        <mxCell id="lNCz8OnNDWfd_Ppy1dn2-40" style="edgeStyle=orthogonalEdgeStyle;rounded=0;orthogonalLoop=1;jettySize=auto;html=1;fontSize=16;" edge="1" parent="1" source="lNCz8OnNDWfd_Ppy1dn2-7" target="lNCz8OnNDWfd_Ppy1dn2-12">
          <mxGeometry relative="1" as="geometry" />
        </mxCell>
        <mxCell id="lNCz8OnNDWfd_Ppy1dn2-44" style="edgeStyle=orthogonalEdgeStyle;rounded=0;orthogonalLoop=1;jettySize=auto;html=1;exitX=0.5;exitY=1;exitDx=0;exitDy=0;entryX=0.133;entryY=0.017;entryDx=0;entryDy=0;entryPerimeter=0;fontSize=16;" edge="1" parent="1" source="lNCz8OnNDWfd_Ppy1dn2-7" target="lNCz8OnNDWfd_Ppy1dn2-3">
          <mxGeometry relative="1" as="geometry" />
        </mxCell>
        <mxCell id="lNCz8OnNDWfd_Ppy1dn2-45" style="edgeStyle=orthogonalEdgeStyle;rounded=0;orthogonalLoop=1;jettySize=auto;html=1;fontSize=16;entryX=0.5;entryY=0;entryDx=0;entryDy=0;" edge="1" parent="1" source="lNCz8OnNDWfd_Ppy1dn2-7" target="lNCz8OnNDWfd_Ppy1dn2-2">
          <mxGeometry relative="1" as="geometry" />
        </mxCell>
        <mxCell id="lNCz8OnNDWfd_Ppy1dn2-51" style="edgeStyle=orthogonalEdgeStyle;rounded=0;orthogonalLoop=1;jettySize=auto;html=1;exitX=0;exitY=0.75;exitDx=0;exitDy=0;entryX=1;entryY=0.25;entryDx=0;entryDy=0;fontSize=16;" edge="1" parent="1" source="lNCz8OnNDWfd_Ppy1dn2-7" target="lNCz8OnNDWfd_Ppy1dn2-23">
          <mxGeometry relative="1" as="geometry" />
        </mxCell>
        <mxCell id="lNCz8OnNDWfd_Ppy1dn2-53" style="edgeStyle=orthogonalEdgeStyle;rounded=0;orthogonalLoop=1;jettySize=auto;html=1;exitX=1;exitY=0.75;exitDx=0;exitDy=0;fontSize=16;" edge="1" parent="1" source="lNCz8OnNDWfd_Ppy1dn2-7" target="lNCz8OnNDWfd_Ppy1dn2-18">
          <mxGeometry relative="1" as="geometry" />
        </mxCell>
        <mxCell id="lNCz8OnNDWfd_Ppy1dn2-7" value="Ground-state relax and Export (energies only)" style="rounded=1;whiteSpace=wrap;html=1;fontSize=16;spacingRight=4;spacingLeft=4;" vertex="1" parent="1">
          <mxGeometry x="510" y="350" width="120" height="90" as="geometry" />
        </mxCell>
        <mxCell id="lNCz8OnNDWfd_Ppy1dn2-35" value="" style="edgeStyle=orthogonalEdgeStyle;rounded=0;orthogonalLoop=1;jettySize=auto;html=1;fontSize=16;" edge="1" parent="1" source="lNCz8OnNDWfd_Ppy1dn2-8" target="lNCz8OnNDWfd_Ppy1dn2-9">
          <mxGeometry relative="1" as="geometry" />
        </mxCell>
        <mxCell id="lNCz8OnNDWfd_Ppy1dn2-8" value="Generate pristine supercell" style="rounded=1;whiteSpace=wrap;html=1;fontSize=16;" vertex="1" parent="1">
          <mxGeometry x="365" y="100" width="120" height="70" as="geometry" />
        </mxCell>
        <mxCell id="lNCz8OnNDWfd_Ppy1dn2-37" style="edgeStyle=orthogonalEdgeStyle;rounded=0;orthogonalLoop=1;jettySize=auto;html=1;exitX=1;exitY=0.5;exitDx=0;exitDy=0;fontSize=16;" edge="1" parent="1" source="lNCz8OnNDWfd_Ppy1dn2-9" target="lNCz8OnNDWfd_Ppy1dn2-10">
          <mxGeometry relative="1" as="geometry" />
        </mxCell>
        <mxCell id="lNCz8OnNDWfd_Ppy1dn2-38" style="edgeStyle=orthogonalEdgeStyle;rounded=0;orthogonalLoop=1;jettySize=auto;html=1;exitX=0;exitY=0.5;exitDx=0;exitDy=0;entryX=0.5;entryY=0;entryDx=0;entryDy=0;fontSize=16;" edge="1" parent="1" source="lNCz8OnNDWfd_Ppy1dn2-9" target="lNCz8OnNDWfd_Ppy1dn2-11">
          <mxGeometry relative="1" as="geometry" />
        </mxCell>
        <mxCell id="lNCz8OnNDWfd_Ppy1dn2-9" value="Pristine supercell relax" style="rounded=1;whiteSpace=wrap;html=1;fontSize=16;" vertex="1" parent="1">
          <mxGeometry x="365" y="200" width="120" height="60" as="geometry" />
        </mxCell>
        <mxCell id="lNCz8OnNDWfd_Ppy1dn2-39" value="" style="edgeStyle=orthogonalEdgeStyle;rounded=0;orthogonalLoop=1;jettySize=auto;html=1;fontSize=16;" edge="1" parent="1" source="lNCz8OnNDWfd_Ppy1dn2-10" target="lNCz8OnNDWfd_Ppy1dn2-7">
          <mxGeometry relative="1" as="geometry" />
        </mxCell>
        <mxCell id="lNCz8OnNDWfd_Ppy1dn2-10" value="Generate defect supercell" style="rounded=1;whiteSpace=wrap;html=1;fontSize=16;" vertex="1" parent="1">
          <mxGeometry x="510" y="270" width="120" height="60" as="geometry" />
        </mxCell>
        <mxCell id="lNCz8OnNDWfd_Ppy1dn2-54" style="edgeStyle=orthogonalEdgeStyle;rounded=0;orthogonalLoop=1;jettySize=auto;html=1;exitX=0.25;exitY=1;exitDx=0;exitDy=0;entryX=0.25;entryY=0;entryDx=0;entryDy=0;fontSize=16;" edge="1" parent="1" source="lNCz8OnNDWfd_Ppy1dn2-11" target="lNCz8OnNDWfd_Ppy1dn2-26">
          <mxGeometry relative="1" as="geometry" />
        </mxCell>
        <mxCell id="lNCz8OnNDWfd_Ppy1dn2-63" style="edgeStyle=orthogonalEdgeStyle;rounded=0;orthogonalLoop=1;jettySize=auto;html=1;exitX=0;exitY=0.5;exitDx=0;exitDy=0;entryX=0;entryY=0.5;entryDx=0;entryDy=0;fontSize=16;" edge="1" parent="1" source="lNCz8OnNDWfd_Ppy1dn2-11" target="lNCz8OnNDWfd_Ppy1dn2-32">
          <mxGeometry relative="1" as="geometry">
            <Array as="points">
              <mxPoint x="90" y="300" />
              <mxPoint x="90" y="910" />
              <mxPoint x="440" y="910" />
              <mxPoint x="440" y="850" />
            </Array>
          </mxGeometry>
        </mxCell>
        <mxCell id="lNCz8OnNDWfd_Ppy1dn2-11" value="Pristine Export" style="rounded=1;whiteSpace=wrap;html=1;fontSize=16;" vertex="1" parent="1">
          <mxGeometry x="190" y="270" width="120" height="60" as="geometry" />
        </mxCell>
        <mxCell id="lNCz8OnNDWfd_Ppy1dn2-48" style="edgeStyle=orthogonalEdgeStyle;rounded=0;orthogonalLoop=1;jettySize=auto;html=1;exitX=0.5;exitY=1;exitDx=0;exitDy=0;entryX=0.75;entryY=0;entryDx=0;entryDy=0;fontSize=16;" edge="1" parent="1" source="lNCz8OnNDWfd_Ppy1dn2-12" target="lNCz8OnNDWfd_Ppy1dn2-18">
          <mxGeometry relative="1" as="geometry" />
        </mxCell>
        <mxCell id="lNCz8OnNDWfd_Ppy1dn2-12" value="Phonons" style="rounded=1;whiteSpace=wrap;html=1;fontSize=16;" vertex="1" parent="1">
          <mxGeometry x="710" y="482.5" width="120" height="60" as="geometry" />
        </mxCell>
        <mxCell id="lNCz8OnNDWfd_Ppy1dn2-58" style="edgeStyle=orthogonalEdgeStyle;rounded=0;orthogonalLoop=1;jettySize=auto;html=1;exitX=0.75;exitY=1;exitDx=0;exitDy=0;entryX=1;entryY=0.5;entryDx=0;entryDy=0;fontSize=16;" edge="1" parent="1" source="lNCz8OnNDWfd_Ppy1dn2-18" target="lNCz8OnNDWfd_Ppy1dn2-33">
          <mxGeometry relative="1" as="geometry" />
        </mxCell>
        <mxCell id="lNCz8OnNDWfd_Ppy1dn2-59" style="edgeStyle=orthogonalEdgeStyle;rounded=0;orthogonalLoop=1;jettySize=auto;html=1;exitX=0.25;exitY=1;exitDx=0;exitDy=0;entryX=0.75;entryY=0;entryDx=0;entryDy=0;fontSize=16;" edge="1" parent="1" source="lNCz8OnNDWfd_Ppy1dn2-18" target="lNCz8OnNDWfd_Ppy1dn2-28">
          <mxGeometry relative="1" as="geometry" />
        </mxCell>
        <mxCell id="lNCz8OnNDWfd_Ppy1dn2-18" value="PhononPP" style="rounded=1;whiteSpace=wrap;html=1;fontSize=16;" vertex="1" parent="1">
          <mxGeometry x="640" y="600" width="120" height="60" as="geometry" />
        </mxCell>
        <mxCell id="lNCz8OnNDWfd_Ppy1dn2-56" style="edgeStyle=orthogonalEdgeStyle;rounded=0;orthogonalLoop=1;jettySize=auto;html=1;exitX=0;exitY=0.5;exitDx=0;exitDy=0;entryX=0.75;entryY=0;entryDx=0;entryDy=0;fontSize=16;" edge="1" parent="1" source="lNCz8OnNDWfd_Ppy1dn2-23" target="lNCz8OnNDWfd_Ppy1dn2-26">
          <mxGeometry relative="1" as="geometry" />
        </mxCell>
        <mxCell id="lNCz8OnNDWfd_Ppy1dn2-61" style="edgeStyle=orthogonalEdgeStyle;rounded=0;orthogonalLoop=1;jettySize=auto;html=1;exitX=0.5;exitY=1;exitDx=0;exitDy=0;entryX=0.005;entryY=0.285;entryDx=0;entryDy=0;entryPerimeter=0;fontSize=16;" edge="1" parent="1" source="lNCz8OnNDWfd_Ppy1dn2-23" target="lNCz8OnNDWfd_Ppy1dn2-28">
          <mxGeometry relative="1" as="geometry" />
        </mxCell>
        <mxCell id="lNCz8OnNDWfd_Ppy1dn2-23" value="EnergyTabulator" style="rounded=1;whiteSpace=wrap;html=1;fontSize=16;spacingRight=4;spacingLeft=4;" vertex="1" parent="1">
          <mxGeometry x="325" y="560" width="130" height="60" as="geometry" />
        </mxCell>
        <mxCell id="lNCz8OnNDWfd_Ppy1dn2-60" style="edgeStyle=orthogonalEdgeStyle;rounded=0;orthogonalLoop=1;jettySize=auto;html=1;exitX=0.5;exitY=1;exitDx=0;exitDy=0;fontSize=16;" edge="1" parent="1" source="lNCz8OnNDWfd_Ppy1dn2-26" target="lNCz8OnNDWfd_Ppy1dn2-27">
          <mxGeometry relative="1" as="geometry" />
        </mxCell>
        <mxCell id="lNCz8OnNDWfd_Ppy1dn2-26" value="TME (zeroth)" style="rounded=1;whiteSpace=wrap;html=1;fontSize=16;" vertex="1" parent="1">
          <mxGeometry x="130" y="690" width="120" height="60" as="geometry" />
        </mxCell>
        <mxCell id="lNCz8OnNDWfd_Ppy1dn2-27" value="LSF (zeroth)" style="rounded=1;whiteSpace=wrap;html=1;fontSize=16;" vertex="1" parent="1">
          <mxGeometry x="130" y="810" width="120" height="60" as="geometry" />
        </mxCell>
        <mxCell id="lNCz8OnNDWfd_Ppy1dn2-57" value="" style="edgeStyle=orthogonalEdgeStyle;rounded=0;orthogonalLoop=1;jettySize=auto;html=1;fontSize=16;" edge="1" parent="1" source="lNCz8OnNDWfd_Ppy1dn2-28" target="lNCz8OnNDWfd_Ppy1dn2-33">
          <mxGeometry relative="1" as="geometry" />
        </mxCell>
        <mxCell id="lNCz8OnNDWfd_Ppy1dn2-28" value="" style="swimlane;startSize=0;fontSize=16;dashed=1;" vertex="1" parent="1">
          <mxGeometry x="470" y="690" width="200" height="210" as="geometry">
            <mxRectangle x="560" y="780" width="50" height="40" as="alternateBounds" />
          </mxGeometry>
        </mxCell>
        <mxCell id="lNCz8OnNDWfd_Ppy1dn2-62" value="" style="edgeStyle=orthogonalEdgeStyle;rounded=0;orthogonalLoop=1;jettySize=auto;html=1;fontSize=16;" edge="1" parent="lNCz8OnNDWfd_Ppy1dn2-28" source="lNCz8OnNDWfd_Ppy1dn2-30" target="lNCz8OnNDWfd_Ppy1dn2-32">
          <mxGeometry relative="1" as="geometry" />
        </mxCell>
        <mxCell id="lNCz8OnNDWfd_Ppy1dn2-30" value="Final charge state at shifted positions SCF and Export" style="rounded=1;whiteSpace=wrap;html=1;spacingRight=4;spacingLeft=4;fontSize=16;" vertex="1" parent="lNCz8OnNDWfd_Ppy1dn2-28">
          <mxGeometry x="40" y="10" width="120" height="90" as="geometry" />
        </mxCell>
        <mxCell id="lNCz8OnNDWfd_Ppy1dn2-32" value="TME (first)" style="rounded=1;whiteSpace=wrap;html=1;spacingRight=4;spacingLeft=4;fontSize=16;" vertex="1" parent="lNCz8OnNDWfd_Ppy1dn2-28">
          <mxGeometry x="40" y="130" width="120" height="60" as="geometry" />
        </mxCell>
        <mxCell id="lNCz8OnNDWfd_Ppy1dn2-29" value="For each mode" style="text;html=1;strokeColor=none;fillColor=none;align=center;verticalAlign=middle;whiteSpace=wrap;rounded=0;fontSize=16;" vertex="1" parent="1">
          <mxGeometry x="470" y="660" width="110" height="30" as="geometry" />
        </mxCell>
        <mxCell id="lNCz8OnNDWfd_Ppy1dn2-33" value="LSF (first)" style="rounded=1;whiteSpace=wrap;html=1;fontSize=16;" vertex="1" parent="1">
          <mxGeometry x="510" y="940" width="120" height="60" as="geometry" />
        </mxCell>
      </root>
    </mxGraphModel>
  </diagram>
</mxfile>
